<svg xmlns="http://www.w3.org/2000/svg" xmlns:xlink="http://www.w3.org/1999/xlink" contentStyleType="text/css" height="1485.7292px" preserveAspectRatio="none" style="width:3773px;height:1485px;background:#F8FAFC;" version="1.1" viewBox="0 0 3773 1485" width="3773.6458px" zoomAndPan="magnify"><title>&lt;size:20&gt;&lt;b&gt;VoxFlow - Class &amp; Architecture Structure Diagram&lt;/b&gt;&lt;/size&gt;</title><defs/><g><rect fill="#F8FAFC" height="1485.7292" style="stroke:none;stroke-width:1.7708333333333333;" width="3773.6458" x="0" y="0"/><text fill="#000000" font-family="sans-serif" font-size="35.4167" font-weight="bold" lengthAdjust="spacing" textLength="844.3105" x="1452.6233" y="54.4739">VoxFlow - Class &amp; Architecture Structure Diagram</text><text fill="#000000" font-family="sans-serif" font-size="21.25" font-weight="bold" lengthAdjust="spacing" textLength="583.244" x="1583.1566" y="84.3152">Core Software Structure, Modules, and HuBERT-D Engine</text><!--cluster API & Interface Layer--><g id="cluster_API &amp; Interface Layer"><path d="M1938.1771,119.0885 L2135.9,119.0885 A6.6406,6.6406 0 0 1 2140.327,123.5156 L2152.7229,154.2147 L2639.4271,154.2147 A4.4271,4.4271 0 0 1 2643.8542,158.6418 L2643.8542,412.1615 A4.4271,4.4271 0 0 1 2639.4271,416.5885 L1938.1771,416.5885 A4.4271,4.4271 0 0 1 1933.75,412.1615 L1933.75,123.5156 A4.4271,4.4271 0 0 1 1938.1771,119.0885 " fill="#EFF6FF" style="stroke:#CBD5E1;stroke-width:2.65625;"/><line style="stroke:#CBD5E1;stroke-width:2.65625;" x1="1933.75" x2="2152.7229" y1="154.2147" y2="154.2147"/><text fill="#334155" font-family="sans-serif" font-size="19.4792" font-weight="bold" lengthAdjust="spacing" textLength="195.952" x="1940.8333" y="142.8513">API &amp; Interface Layer</text></g><!--cluster Session Processing & AI Engine--><g id="cluster_Session Processing &amp; AI Engine"><path d="M15.0521,565.3385 L316.667,565.3385 A6.6406,6.6406 0 0 1 321.0941,569.7656 L333.4899,600.4647 L2428.6979,600.4647 A4.4271,4.4271 0 0 1 2433.125,604.8918 L2433.125,1469.349 A4.4271,4.4271 0 0 1 2428.6979,1473.776 L15.0521,1473.776 A4.4271,4.4271 0 0 1 10.625,1469.349 L10.625,569.7656 A4.4271,4.4271 0 0 1 15.0521,565.3385 " fill="#F5F3FF" style="stroke:#CBD5E1;stroke-width:2.65625;"/><line style="stroke:#CBD5E1;stroke-width:2.65625;" x1="10.625" x2="333.4899" y1="600.4647" y2="600.4647"/><text fill="#334155" font-family="sans-serif" font-size="19.4792" font-weight="bold" lengthAdjust="spacing" textLength="299.8441" x="17.7083" y="589.1013">Session Processing &amp; AI Engine</text></g><!--cluster Data Persistence Layer--><g id="cluster_Data Persistence Layer"><path d="M2480.0521,505.1302 L2696.2174,505.1302 A6.6406,6.6406 0 0 1 2700.6445,509.5573 L2713.0403,540.2563 L3137.0313,540.2563 A4.4271,4.4271 0 0 1 3141.4583,544.6834 L3141.4583,858.4115 A4.4271,4.4271 0 0 1 3137.0313,862.8385 L2480.0521,862.8385 A4.4271,4.4271 0 0 1 2475.625,858.4115 L2475.625,509.5573 A4.4271,4.4271 0 0 1 2480.0521,505.1302 " fill="#ECFDF5" style="stroke:#CBD5E1;stroke-width:2.65625;"/><line style="stroke:#CBD5E1;stroke-width:2.65625;" x1="2475.625" x2="2713.0403" y1="540.2563" y2="540.2563"/><text fill="#334155" font-family="sans-serif" font-size="19.4792" font-weight="bold" lengthAdjust="spacing" textLength="214.3945" x="2482.7083" y="528.8929">Data Persistence Layer</text></g><!--class API--><g id="elem_API"><rect codeLine="35" fill="#DBEAFE" height="213.0949" id="API" rx="4.4271" ry="4.4271" style="stroke:#334155;stroke-width:2.65625;" width="294.0924" x="1962.0833" y="175.7552"/><ellipse cx="2048.0051" cy="207.9968" fill="#ADD1B2" rx="19.4792" ry="19.4792" style="stroke:#181818;stroke-width:1.7708333333333333;"/><path d="M2052.9025,200.6921 Q2053.1792,200.3048 2053.5113,200.1111 Q2053.8433,199.9174 2054.2307,199.9174 Q2054.8947,199.9174 2055.3098,200.3878 Q2055.7248,200.8305 2055.7248,201.9096 L2055.7248,204.4828 Q2055.7248,205.5619 2055.3098,206.0323 Q2054.8947,206.5027 2054.2307,206.5027 Q2053.6219,206.5027 2053.2622,206.143 Q2052.9025,205.811 2052.7088,204.8979 Q2052.6258,204.2615 2052.2938,203.9294 Q2051.7127,203.2654 2050.6336,202.878 Q2049.5545,202.4906 2048.4478,202.4906 Q2047.092,202.4906 2045.9575,203.0717 Q2044.8508,203.6528 2043.9654,204.9809 Q2043.1076,206.309 2043.1076,208.1352 L2043.1076,210.072 Q2043.1076,212.2579 2044.6848,213.7244 Q2046.2619,215.1632 2049.0842,215.1632 Q2050.7443,215.1632 2051.9064,214.7205 Q2052.5982,214.4438 2053.3452,213.669 Q2053.8156,213.1986 2054.0646,213.0603 Q2054.3413,212.922 2054.701,212.922 Q2055.2821,212.922 2055.7248,213.3923 Q2056.1952,213.835 2056.1952,214.4438 Q2056.1952,215.0525 2055.5864,215.7719 Q2054.701,216.7957 2053.2899,217.3767 Q2051.3807,218.1791 2049.0842,218.1791 Q2046.4002,218.1791 2044.2697,217.0723 Q2042.5266,216.1869 2041.3091,214.3054 Q2040.0917,212.3962 2040.0917,210.1274 L2040.0917,208.0798 Q2040.0917,205.7279 2041.1708,203.7081 Q2042.2775,201.6606 2044.2144,200.5815 Q2046.1512,199.4747 2048.3371,199.4747 Q2049.6376,199.4747 2050.772,199.7791 Q2051.9341,200.0557 2052.9025,200.6921 Z " fill="#000000"/><text fill="#000000" font-family="sans-serif" font-size="21.25" font-style="italic" lengthAdjust="spacing" textLength="111.0333" x="2082.3889" y="206.6687">&#171;controller&#187;</text><text fill="#0F172A" font-family="sans-serif" font-size="15.9375" lengthAdjust="spacing" textLength="107.1968" x="2084.3071" y="227.8824">session_routes</text><line style="stroke:#334155;stroke-width:2.65625;" x1="1963.8542" x2="2254.4049" y1="240.2384" y2="240.2384"/><ellipse cx="1981.5625" cy="260.0012" fill="none" rx="5.3125" ry="5.3125" style="stroke:#038048;stroke-width:1.7708333333333333;"/><text fill="#000000" font-family="sans-serif" font-size="15.9375" lengthAdjust="spacing" textLength="188.6664" x="1997.5" y="263.8663">POST /api/v1/session/start</text><ellipse cx="1981.5625" cy="280.0476" fill="none" rx="5.3125" ry="5.3125" style="stroke:#038048;stroke-width:1.7708333333333333;"/><text fill="#000000" font-family="sans-serif" font-size="15.9375" lengthAdjust="spacing" textLength="232.1132" x="1997.5" y="283.9127">POST /api/v1/session/&lt;id&gt;/audio</text><ellipse cx="1981.5625" cy="300.094" fill="none" rx="5.3125" ry="5.3125" style="stroke:#038048;stroke-width:1.7708333333333333;"/><text fill="#000000" font-family="sans-serif" font-size="15.9375" lengthAdjust="spacing" textLength="223.2417" x="1997.5" y="303.959">POST /api/v1/session/&lt;id&gt;/stop</text><ellipse cx="1981.5625" cy="320.1404" fill="none" rx="5.3125" ry="5.3125" style="stroke:#038048;stroke-width:1.7708333333333333;"/><text fill="#000000" font-family="sans-serif" font-size="15.9375" lengthAdjust="spacing" textLength="248.0507" x="1997.5" y="324.0054">POST /api/v1/session/&lt;id&gt;/analyze</text><ellipse cx="1981.5625" cy="340.1868" fill="none" rx="5.3125" ry="5.3125" style="stroke:#038048;stroke-width:1.7708333333333333;"/><text fill="#000000" font-family="sans-serif" font-size="15.9375" lengthAdjust="spacing" textLength="178.0595" x="1997.5" y="344.0518">GET /api/v1/session/&lt;id&gt;</text><ellipse cx="1981.5625" cy="360.2332" fill="none" rx="5.3125" ry="5.3125" style="stroke:#038048;stroke-width:1.7708333333333333;"/><text fill="#000000" font-family="sans-serif" font-size="15.9375" lengthAdjust="spacing" textLength="185.1334" x="1997.5" y="364.0982">GET /api/v1/session/latest</text><line style="stroke:#334155;stroke-width:2.65625;" x1="1963.8542" x2="2254.4049" y1="374.6834" y2="374.6834"/></g><!--class UI--><g id="elem_UI"><rect codeLine="44" fill="#DCFCE7" height="132.9093" id="UI" rx="4.4271" ry="4.4271" style="stroke:#334155;stroke-width:2.65625;" width="295.8839" x="2318.9063" y="215.599"/><ellipse cx="2393.0365" cy="247.8406" fill="#ADD1B2" rx="19.4792" ry="19.4792" style="stroke:#181818;stroke-width:1.7708333333333333;"/><path d="M2397.934,240.5359 Q2398.2107,240.1485 2398.5427,239.9548 Q2398.8747,239.7611 2399.2621,239.7611 Q2399.9262,239.7611 2400.3412,240.2315 Q2400.7562,240.6742 2400.7562,241.7533 L2400.7562,244.3266 Q2400.7562,245.4057 2400.3412,245.8761 Q2399.9262,246.3464 2399.2621,246.3464 Q2398.6534,246.3464 2398.2937,245.9867 Q2397.934,245.6547 2397.7403,244.7416 Q2397.6573,244.1052 2397.3252,243.7732 Q2396.7442,243.1091 2395.6651,242.7218 Q2394.586,242.3344 2393.4792,242.3344 Q2392.1234,242.3344 2390.989,242.9154 Q2389.8822,243.4965 2388.9968,244.8246 Q2388.139,246.1528 2388.139,247.9789 L2388.139,249.9158 Q2388.139,252.1016 2389.7162,253.5681 Q2391.2933,255.0069 2394.1156,255.0069 Q2395.7758,255.0069 2396.9379,254.5642 Q2397.6296,254.2875 2398.3767,253.5128 Q2398.8471,253.0424 2399.0961,252.9041 Q2399.3728,252.7657 2399.7325,252.7657 Q2400.3135,252.7657 2400.7562,253.2361 Q2401.2266,253.6788 2401.2266,254.2875 Q2401.2266,254.8962 2400.6179,255.6156 Q2399.7325,256.6394 2398.3213,257.2205 Q2396.4122,258.0229 2394.1156,258.0229 Q2391.4317,258.0229 2389.3012,256.9161 Q2387.558,256.0307 2386.3405,254.1492 Q2385.1231,252.24 2385.1231,249.9711 L2385.1231,247.9236 Q2385.1231,245.5717 2386.2022,243.5518 Q2387.309,241.5043 2389.2458,240.4252 Q2391.1827,239.3184 2393.3685,239.3184 Q2394.669,239.3184 2395.8034,239.6228 Q2396.9655,239.8995 2397.934,240.5359 Z " fill="#000000"/><text fill="#000000" font-family="sans-serif" font-size="21.25" font-style="italic" lengthAdjust="spacing" textLength="140.5945" x="2424.8571" y="246.5125">&#171;presentation&#187;</text><text fill="#0F172A" font-family="sans-serif" font-size="15.9375" lengthAdjust="spacing" textLength="110.7765" x="2439.7661" y="267.7261">dashboard_app</text><line style="stroke:#334155;stroke-width:2.65625;" x1="2320.6771" x2="2613.0194" y1="280.0822" y2="280.0822"/><text fill="#000000" font-family="sans-serif" font-size="15.9375" lengthAdjust="spacing" textLength="274.6339" x="2329.5313" y="303.71">Interactive Speech Fluency Dashboard</text><line style="stroke:#334155;stroke-width:2.65625;" x1="2320.6771" x2="2613.0194" y1="314.2952" y2="314.2952"/><text fill="#000000" font-family="sans-serif" font-size="15.9375" lengthAdjust="spacing" textLength="236.4944" x="2329.5313" y="337.9231">(Streamlit Multi-Page Application)</text></g><!--class Engine--><g id="elem_Engine"><rect codeLine="56" fill="#EDE9FE" height="152.9557" id="Engine" rx="4.4271" ry="4.4271" style="stroke:#334155;stroke-width:2.65625;" width="769.2291" x="38.9583" y="622.0052"/><ellipse cx="360.6664" cy="654.2468" fill="#ADD1B2" rx="19.4792" ry="19.4792" style="stroke:#181818;stroke-width:1.7708333333333333;"/><path d="M365.5638,646.9421 Q365.8405,646.5548 366.1725,646.3611 Q366.5046,646.1674 366.8919,646.1674 Q367.556,646.1674 367.971,646.6378 Q368.3861,647.0805 368.3861,648.1596 L368.3861,650.7328 Q368.3861,651.8119 367.971,652.2823 Q367.556,652.7527 366.8919,652.7527 Q366.2832,652.7527 365.9235,652.393 Q365.5638,652.061 365.3701,651.1479 Q365.2871,650.5115 364.9551,650.1794 Q364.374,649.5154 363.2949,649.128 Q362.2158,648.7406 361.1091,648.7406 Q359.7533,648.7406 358.6188,649.3217 Q357.5121,649.9028 356.6266,651.2309 Q355.7689,652.559 355.7689,654.3852 L355.7689,656.322 Q355.7689,658.5079 357.346,659.9744 Q358.9232,661.4132 361.7455,661.4132 Q363.4056,661.4132 364.5677,660.9705 Q365.2595,660.6938 366.0065,659.919 Q366.4769,659.4486 366.7259,659.3103 Q367.0026,659.172 367.3623,659.172 Q367.9434,659.172 368.3861,659.6423 Q368.8565,660.085 368.8565,660.6938 Q368.8565,661.3025 368.2477,662.0219 Q367.3623,663.0457 365.9512,663.6267 Q364.042,664.4291 361.7455,664.4291 Q359.0615,664.4291 356.931,663.3223 Q355.1878,662.4369 353.9704,660.5554 Q352.7529,658.6462 352.7529,656.3774 L352.7529,654.3298 Q352.7529,651.9779 353.832,649.9581 Q354.9388,647.9106 356.8757,646.8315 Q358.8125,645.7247 360.9984,645.7247 Q362.2988,645.7247 363.4333,646.0291 Q364.5954,646.3057 365.5638,646.9421 Z " fill="#000000"/><text fill="#000000" font-family="sans-serif" font-size="21.25" font-style="italic" lengthAdjust="spacing" textLength="93.3319" x="405.683" y="652.9187">&#171;module&#187;</text><text fill="#0F172A" font-family="sans-serif" font-size="15.9375" lengthAdjust="spacing" textLength="110.761" x="396.9684" y="674.1324">session_engine</text><line style="stroke:#334155;stroke-width:2.65625;" x1="40.7292" x2="806.4166" y1="686.4884" y2="686.4884"/><line style="stroke:#334155;stroke-width:2.65625;" x1="40.7292" x2="806.4166" y1="700.6551" y2="700.6551"/><ellipse cx="58.4375" cy="720.4179" fill="#84BE84" rx="5.3125" ry="5.3125" style="stroke:#038048;stroke-width:1.7708333333333333;"/><text fill="#000000" font-family="sans-serif" font-size="15.9375" lengthAdjust="spacing" textLength="549.8126" x="74.375" y="724.2829">validate_and_load_session_audio(audio_path_or_bytes, sample_rate=16000)</text><ellipse cx="58.4375" cy="740.4643" fill="#84BE84" rx="5.3125" ry="5.3125" style="stroke:#038048;stroke-width:1.7708333333333333;"/><text fill="#000000" font-family="sans-serif" font-size="15.9375" lengthAdjust="spacing" textLength="548.8321" x="74.375" y="744.3293">process_session_windows(session_id, audio, sr, duration_sec, engine=None)</text><ellipse cx="58.4375" cy="760.5107" fill="#84BE84" rx="5.3125" ry="5.3125" style="stroke:#038048;stroke-width:1.7708333333333333;"/><text fill="#000000" font-family="sans-serif" font-size="15.9375" lengthAdjust="spacing" textLength="723.1874" x="74.375" y="764.3757">process_continuous_session(audio_source, session_id=None, filename="session.wav", engine=None)</text></g><!--class InfEngine--><g id="elem_InfEngine"><rect codeLine="62" fill="#C4B5FD" height="185.2319" id="InfEngine" rx="4.4271" ry="4.4271" style="stroke:#334155;stroke-width:2.65625;" width="370.2313" x="1518.4896" y="976.1719"/><ellipse cx="1607.4852" cy="1004.5052" fill="#ADD1B2" rx="19.4792" ry="19.4792" style="stroke:#181818;stroke-width:1.7708333333333333;"/><path d="M1612.3827,997.2005 Q1612.6594,996.8132 1612.9914,996.6195 Q1613.3234,996.4258 1613.7108,996.4258 Q1614.3748,996.4258 1614.7899,996.8962 Q1615.2049,997.3389 1615.2049,998.418 L1615.2049,1000.9912 Q1615.2049,1002.0703 1614.7899,1002.5407 Q1614.3748,1003.0111 1613.7108,1003.0111 Q1613.1021,1003.0111 1612.7424,1002.6514 Q1612.3827,1002.3193 1612.189,1001.4063 Q1612.106,1000.7699 1611.7739,1000.4378 Q1611.1929,999.7738 1610.1138,999.3864 Q1609.0347,998.999 1607.9279,998.999 Q1606.5721,998.999 1605.4377,999.5801 Q1604.3309,1000.1611 1603.4455,1001.4893 Q1602.5877,1002.8174 1602.5877,1004.6436 L1602.5877,1006.5804 Q1602.5877,1008.7663 1604.1649,1010.2327 Q1605.742,1011.6715 1608.5643,1011.6715 Q1610.2245,1011.6715 1611.3866,1011.2288 Q1612.0783,1010.9521 1612.8254,1010.1774 Q1613.2957,1009.707 1613.5448,1009.5687 Q1613.8215,1009.4303 1614.1812,1009.4303 Q1614.7622,1009.4303 1615.2049,1009.9007 Q1615.6753,1010.3434 1615.6753,1010.9521 Q1615.6753,1011.5609 1615.0666,1012.2803 Q1614.1812,1013.304 1612.77,1013.8851 Q1610.8609,1014.6875 1608.5643,1014.6875 Q1605.8804,1014.6875 1603.7498,1013.5807 Q1602.0067,1012.6953 1600.7892,1010.8138 Q1599.5718,1008.9046 1599.5718,1006.6357 L1599.5718,1004.5882 Q1599.5718,1002.2363 1600.6509,1000.2165 Q1601.7577,998.1689 1603.6945,997.0898 Q1605.6314,995.9831 1607.8172,995.9831 Q1609.1177,995.9831 1610.2521,996.2874 Q1611.4142,996.5641 1612.3827,997.2005 Z " fill="#000000"/><text fill="#0F172A" font-family="sans-serif" font-size="15.9375" lengthAdjust="spacing" textLength="177.188" x="1643.7873" y="1011.0265">VoxFlowInferenceEngine</text><line style="stroke:#334155;stroke-width:2.65625;" x1="1520.2604" x2="1886.95" y1="1032.8385" y2="1032.8385"/><rect fill="none" height="10.625" style="stroke:#C82930;stroke-width:1.7708333333333333;" width="10.625" x="1532.6563" y="1047.2888"/><text fill="#000000" font-family="sans-serif" font-size="15.9375" lengthAdjust="spacing" textLength="242.7045" x="1553.9063" y="1056.4664">model : HubertMultiLabelClassifier</text><rect fill="none" height="10.625" style="stroke:#C82930;stroke-width:1.7708333333333333;" width="10.625" x="1532.6563" y="1067.3352"/><text fill="#000000" font-family="sans-serif" font-size="15.9375" lengthAdjust="spacing" textLength="145.2818" x="1553.9063" y="1076.5128">device : torch.device</text><rect fill="none" height="10.625" style="stroke:#C82930;stroke-width:1.7708333333333333;" width="10.625" x="1532.6563" y="1087.3816"/><text fill="#000000" font-family="sans-serif" font-size="15.9375" lengthAdjust="spacing" textLength="111.617" x="1553.9063" y="1096.5591">thresholds : dict</text><line style="stroke:#334155;stroke-width:2.65625;" x1="1520.2604" x2="1886.95" y1="1107.1444" y2="1107.1444"/><ellipse cx="1537.9688" cy="1126.9071" fill="#84BE84" rx="5.3125" ry="5.3125" style="stroke:#038048;stroke-width:1.7708333333333333;"/><text fill="#000000" font-family="sans-serif" font-size="15.9375" lengthAdjust="spacing" textLength="324.1896" x="1553.9063" y="1130.7722">predict_window(waveform, sample_rate) : dict</text><ellipse cx="1537.9688" cy="1146.9535" fill="#84BE84" rx="5.3125" ry="5.3125" style="stroke:#038048;stroke-width:1.7708333333333333;"/><text fill="#000000" font-family="sans-serif" font-size="15.9375" lengthAdjust="spacing" textLength="157.6863" x="1553.9063" y="1150.8186">get_model_info() : dict</text></g><!--class HubertModel--><g id="elem_HubertModel"><rect codeLine="70" fill="#C4B5FD" height="145.1392" id="HubertModel" rx="4.4271" ry="4.4271" style="stroke:#334155;stroke-width:2.65625;" width="379.1183" x="1514.0625" y="1300.2344"/><ellipse cx="1603.0892" cy="1328.5677" fill="#ADD1B2" rx="19.4792" ry="19.4792" style="stroke:#181818;stroke-width:1.7708333333333333;"/><path d="M1607.9867,1321.263 Q1608.2634,1320.8757 1608.5954,1320.682 Q1608.9275,1320.4883 1609.3148,1320.4883 Q1609.9789,1320.4883 1610.3939,1320.9587 Q1610.809,1321.4014 1610.809,1322.4805 L1610.809,1325.0537 Q1610.809,1326.1328 1610.3939,1326.6032 Q1609.9789,1327.0736 1609.3148,1327.0736 Q1608.7061,1327.0736 1608.3464,1326.7139 Q1607.9867,1326.3818 1607.793,1325.4688 Q1607.71,1324.8324 1607.378,1324.5003 Q1606.7969,1323.8363 1605.7178,1323.4489 Q1604.6387,1323.0615 1603.532,1323.0615 Q1602.1762,1323.0615 1601.0417,1323.6426 Q1599.9349,1324.2236 1599.0495,1325.5518 Q1598.1918,1326.8799 1598.1918,1328.7061 L1598.1918,1330.6429 Q1598.1918,1332.8288 1599.7689,1334.2952 Q1601.3461,1335.734 1604.1683,1335.734 Q1605.8285,1335.734 1606.9906,1335.2913 Q1607.6823,1335.0146 1608.4294,1334.2399 Q1608.8998,1333.7695 1609.1488,1333.6312 Q1609.4255,1333.4928 1609.7852,1333.4928 Q1610.3663,1333.4928 1610.809,1333.9632 Q1611.2793,1334.4059 1611.2793,1335.0146 Q1611.2793,1335.6234 1610.6706,1336.3428 Q1609.7852,1337.3665 1608.3741,1337.9476 Q1606.4649,1338.75 1604.1683,1338.75 Q1601.4844,1338.75 1599.3539,1337.6432 Q1597.6107,1336.7578 1596.3933,1334.8763 Q1595.1758,1332.9671 1595.1758,1330.6982 L1595.1758,1328.6507 Q1595.1758,1326.2988 1596.2549,1324.279 Q1597.3617,1322.2314 1599.2986,1321.1523 Q1601.2354,1320.0456 1603.4213,1320.0456 Q1604.7217,1320.0456 1605.8562,1320.3499 Q1607.0183,1320.6266 1607.9867,1321.263 Z " fill="#000000"/><text fill="#0F172A" font-family="sans-serif" font-size="15.9375" lengthAdjust="spacing" textLength="186.0127" x="1639.3913" y="1335.089">HubertMultiLabelClassifier</text><line style="stroke:#334155;stroke-width:2.65625;" x1="1515.8333" x2="1891.41" y1="1356.901" y2="1356.901"/><rect fill="none" height="10.625" style="stroke:#C82930;stroke-width:1.7708333333333333;" width="10.625" x="1528.2292" y="1371.3513"/><text fill="#000000" font-family="sans-serif" font-size="15.9375" lengthAdjust="spacing" textLength="149.7176" x="1549.4792" y="1380.5289">hubert : HubertModel</text><rect fill="none" height="10.625" style="stroke:#C82930;stroke-width:1.7708333333333333;" width="10.625" x="1528.2292" y="1391.3977"/><text fill="#000000" font-family="sans-serif" font-size="15.9375" lengthAdjust="spacing" textLength="150.5969" x="1549.4792" y="1400.5753">classifier : Sequential</text><line style="stroke:#334155;stroke-width:2.65625;" x1="1515.8333" x2="1891.41" y1="1411.1605" y2="1411.1605"/><ellipse cx="1533.5417" cy="1430.9233" fill="#84BE84" rx="5.3125" ry="5.3125" style="stroke:#038048;stroke-width:1.7708333333333333;"/><text fill="#000000" font-family="sans-serif" font-size="15.9375" lengthAdjust="spacing" textLength="333.0766" x="1549.4792" y="1434.7883">forward(input_values, attention_mask) : Tensor</text></g><!--class Aggregator--><g id="elem_Aggregator"><rect codeLine="76" fill="#DDD6FE" height="112.863" id="Aggregator" rx="4.4271" ry="4.4271" style="stroke:#334155;stroke-width:2.65625;" width="730.8795" x="870.3646" y="641.4844"/><ellipse cx="1165.8084" cy="673.726" fill="#ADD1B2" rx="19.4792" ry="19.4792" style="stroke:#181818;stroke-width:1.7708333333333333;"/><path d="M1170.7059,666.4213 Q1170.9826,666.0339 1171.3146,665.8403 Q1171.6466,665.6466 1172.034,665.6466 Q1172.6981,665.6466 1173.1131,666.1169 Q1173.5281,666.5597 1173.5281,667.6388 L1173.5281,670.212 Q1173.5281,671.2911 1173.1131,671.7615 Q1172.6981,672.2319 1172.034,672.2319 Q1171.4253,672.2319 1171.0656,671.8722 Q1170.7059,671.5401 1170.5122,670.627 Q1170.4292,669.9906 1170.0971,669.6586 Q1169.5161,668.9945 1168.437,668.6072 Q1167.3579,668.2198 1166.2511,668.2198 Q1164.8953,668.2198 1163.7609,668.8009 Q1162.6541,669.3819 1161.7687,670.71 Q1160.9109,672.0382 1160.9109,673.8643 L1160.9109,675.8012 Q1160.9109,677.9871 1162.4881,679.4535 Q1164.0652,680.8923 1166.8875,680.8923 Q1168.5477,680.8923 1169.7098,680.4496 Q1170.4015,680.1729 1171.1486,679.3982 Q1171.619,678.9278 1171.868,678.7895 Q1172.1447,678.6511 1172.5044,678.6511 Q1173.0854,678.6511 1173.5281,679.1215 Q1173.9985,679.5642 1173.9985,680.1729 Q1173.9985,680.7817 1173.3898,681.5011 Q1172.5044,682.5248 1171.0932,683.1059 Q1169.1841,683.9083 1166.8875,683.9083 Q1164.2036,683.9083 1162.0731,682.8015 Q1160.3299,681.9161 1159.1124,680.0346 Q1157.895,678.1254 1157.895,675.8565 L1157.895,673.809 Q1157.895,671.4571 1158.9741,669.4373 Q1160.0809,667.3897 1162.0177,666.3106 Q1163.9546,665.2039 1166.1404,665.2039 Q1167.4409,665.2039 1168.5753,665.5082 Q1169.7374,665.7849 1170.7059,666.4213 Z " fill="#000000"/><text fill="#000000" font-family="sans-serif" font-size="21.25" font-style="italic" lengthAdjust="spacing" textLength="93.3319" x="1217.9144" y="672.3979">&#171;module&#187;</text><text fill="#0F172A" font-family="sans-serif" font-size="15.9375" lengthAdjust="spacing" textLength="124.9397" x="1202.1105" y="693.6116">event_aggregator</text><line style="stroke:#334155;stroke-width:2.65625;" x1="872.1354" x2="1599.4732" y1="705.9676" y2="705.9676"/><line style="stroke:#334155;stroke-width:2.65625;" x1="872.1354" x2="1599.4732" y1="720.1343" y2="720.1343"/><ellipse cx="889.8438" cy="739.8971" fill="#84BE84" rx="5.3125" ry="5.3125" style="stroke:#038048;stroke-width:1.7708333333333333;"/><text fill="#000000" font-family="sans-serif" font-size="15.9375" lengthAdjust="spacing" textLength="684.8378" x="905.7813" y="743.7621">aggregate_window_events(session_id, windows, min_support_windows=1, merge_gap_sec=1.5)</text></g><!--class Summary--><g id="elem_Summary"><rect codeLine="80" fill="#DDD6FE" height="112.863" id="Summary" rx="4.4271" ry="4.4271" style="stroke:#334155;stroke-width:2.65625;" width="740.7859" x="1664.5833" y="641.4844"/><ellipse cx="1963.2372" cy="673.726" fill="#ADD1B2" rx="19.4792" ry="19.4792" style="stroke:#181818;stroke-width:1.7708333333333333;"/><path d="M1968.1347,666.4213 Q1968.4114,666.0339 1968.7434,665.8403 Q1969.0754,665.6466 1969.4628,665.6466 Q1970.1269,665.6466 1970.5419,666.1169 Q1970.957,666.5597 1970.957,667.6388 L1970.957,670.212 Q1970.957,671.2911 1970.5419,671.7615 Q1970.1269,672.2319 1969.4628,672.2319 Q1968.8541,672.2319 1968.4944,671.8722 Q1968.1347,671.5401 1967.941,670.627 Q1967.858,669.9906 1967.526,669.6586 Q1966.9449,668.9945 1965.8658,668.6072 Q1964.7867,668.2198 1963.6799,668.2198 Q1962.3241,668.2198 1961.1897,668.8009 Q1960.0829,669.3819 1959.1975,670.71 Q1958.3398,672.0382 1958.3398,673.8643 L1958.3398,675.8012 Q1958.3398,677.9871 1959.9169,679.4535 Q1961.4941,680.8923 1964.3163,680.8923 Q1965.9765,680.8923 1967.1386,680.4496 Q1967.8303,680.1729 1968.5774,679.3982 Q1969.0478,678.9278 1969.2968,678.7895 Q1969.5735,678.6511 1969.9332,678.6511 Q1970.5142,678.6511 1970.957,679.1215 Q1971.4273,679.5642 1971.4273,680.1729 Q1971.4273,680.7817 1970.8186,681.5011 Q1969.9332,682.5248 1968.5221,683.1059 Q1966.6129,683.9083 1964.3163,683.9083 Q1961.6324,683.9083 1959.5019,682.8015 Q1957.7587,681.9161 1956.5413,680.0346 Q1955.3238,678.1254 1955.3238,675.8565 L1955.3238,673.809 Q1955.3238,671.4571 1956.4029,669.4373 Q1957.5097,667.3897 1959.4465,666.3106 Q1961.3834,665.2039 1963.5693,665.2039 Q1964.8697,665.2039 1966.0042,665.5082 Q1967.1663,665.7849 1968.1347,666.4213 Z " fill="#000000"/><text fill="#000000" font-family="sans-serif" font-size="21.25" font-style="italic" lengthAdjust="spacing" textLength="93.3319" x="2017.0864" y="672.3979">&#171;module&#187;</text><text fill="#0F172A" font-family="sans-serif" font-size="15.9375" lengthAdjust="spacing" textLength="128.4261" x="1999.5393" y="693.6116">session_summary</text><line style="stroke:#334155;stroke-width:2.65625;" x1="1666.3542" x2="2403.5984" y1="705.9676" y2="705.9676"/><line style="stroke:#334155;stroke-width:2.65625;" x1="1666.3542" x2="2403.5984" y1="720.1343" y2="720.1343"/><ellipse cx="1684.0625" cy="739.8971" fill="#84BE84" rx="5.3125" ry="5.3125" style="stroke:#038048;stroke-width:1.7708333333333333;"/><text fill="#000000" font-family="sans-serif" font-size="15.9375" lengthAdjust="spacing" textLength="694.7443" x="1700" y="743.7621">calculate_session_summary(session_id, duration_sec, windows, events, model_name="VoxFlow")</text></g><!--class DB--><g id="elem_DB"><rect codeLine="91" fill="#DCFCE7" height="273.234" id="DB" rx="4.4271" ry="4.4271" style="stroke:#334155;stroke-width:2.65625;" width="609.0136" x="2503.9583" y="561.7969"/><ellipse cx="2757.8148" cy="594.0385" fill="#ADD1B2" rx="19.4792" ry="19.4792" style="stroke:#181818;stroke-width:1.7708333333333333;"/><path d="M2762.7123,586.7338 Q2762.989,586.3464 2763.321,586.1528 Q2763.653,585.9591 2764.0404,585.9591 Q2764.7045,585.9591 2765.1195,586.4294 Q2765.5345,586.8722 2765.5345,587.9513 L2765.5345,590.5245 Q2765.5345,591.6036 2765.1195,592.074 Q2764.7045,592.5444 2764.0404,592.5444 Q2763.4317,592.5444 2763.072,592.1847 Q2762.7123,591.8526 2762.5186,590.9395 Q2762.4356,590.3031 2762.1036,589.9711 Q2761.5225,589.307 2760.4434,588.9197 Q2759.3643,588.5323 2758.2575,588.5323 Q2756.9017,588.5323 2755.7673,589.1134 Q2754.6605,589.6944 2753.7751,591.0225 Q2752.9174,592.3507 2752.9174,594.1768 L2752.9174,596.1137 Q2752.9174,598.2996 2754.4945,599.766 Q2756.0717,601.2048 2758.8939,601.2048 Q2760.5541,601.2048 2761.7162,600.7621 Q2762.4079,600.4854 2763.155,599.7107 Q2763.6254,599.2403 2763.8744,599.102 Q2764.1511,598.9636 2764.5108,598.9636 Q2765.0918,598.9636 2765.5345,599.434 Q2766.0049,599.8767 2766.0049,600.4854 Q2766.0049,601.0942 2765.3962,601.8136 Q2764.5108,602.8373 2763.0996,603.4184 Q2761.1905,604.2208 2758.8939,604.2208 Q2756.21,604.2208 2754.0795,603.114 Q2752.3363,602.2286 2751.1189,600.3471 Q2749.9014,598.4379 2749.9014,596.169 L2749.9014,594.1215 Q2749.9014,591.7696 2750.9805,589.7498 Q2752.0873,587.7022 2754.0241,586.6231 Q2755.961,585.5164 2758.1468,585.5164 Q2759.4473,585.5164 2760.5817,585.8207 Q2761.7439,586.0974 2762.7123,586.7338 Z " fill="#000000"/><text fill="#000000" font-family="sans-serif" font-size="21.25" font-style="italic" lengthAdjust="spacing" textLength="93.3319" x="2790.5752" y="592.7104">&#171;module&#187;</text><text fill="#0F172A" font-family="sans-serif" font-size="15.9375" lengthAdjust="spacing" textLength="65.5788" x="2804.4518" y="613.9241">database</text><line style="stroke:#334155;stroke-width:2.65625;" x1="2505.7292" x2="3111.2011" y1="626.2801" y2="626.2801"/><rect fill="none" height="10.625" style="stroke:#C82930;stroke-width:1.7708333333333333;" width="10.625" x="2518.125" y="640.7304"/><text fill="#000000" font-family="sans-serif" font-size="15.9375" lengthAdjust="spacing" textLength="119.5779" x="2539.375" y="649.9079">DB_PATH : Path</text><line style="stroke:#334155;stroke-width:2.65625;" x1="2505.7292" x2="3111.2011" y1="660.4932" y2="660.4932"/><ellipse cx="2523.4375" cy="680.2559" fill="#84BE84" rx="5.3125" ry="5.3125" style="stroke:#038048;stroke-width:1.7708333333333333;"/><text fill="#000000" font-family="sans-serif" font-size="15.9375" lengthAdjust="spacing" textLength="162.5967" x="2539.375" y="684.121">init_db(db_path=None)</text><ellipse cx="2523.4375" cy="700.3023" fill="#84BE84" rx="5.3125" ry="5.3125" style="stroke:#038048;stroke-width:1.7708333333333333;"/><text fill="#000000" font-family="sans-serif" font-size="15.9375" lengthAdjust="spacing" textLength="174.5032" x="2539.375" y="704.1674">save_session_record(...)</text><ellipse cx="2523.4375" cy="720.3487" fill="#84BE84" rx="5.3125" ry="5.3125" style="stroke:#038048;stroke-width:1.7708333333333333;"/><text fill="#000000" font-family="sans-serif" font-size="15.9375" lengthAdjust="spacing" textLength="562.972" x="2539.375" y="724.2138">save_session_analysis(session_id, windows, events, summary, db_path=None)</text><ellipse cx="2523.4375" cy="740.3951" fill="#84BE84" rx="5.3125" ry="5.3125" style="stroke:#038048;stroke-width:1.7708333333333333;"/><text fill="#000000" font-family="sans-serif" font-size="15.9375" lengthAdjust="spacing" textLength="440.7637" x="2539.375" y="744.2602">save_session(session_data, windows, events, db_path=None)</text><ellipse cx="2523.4375" cy="760.4415" fill="#84BE84" rx="5.3125" ry="5.3125" style="stroke:#038048;stroke-width:1.7708333333333333;"/><text fill="#000000" font-family="sans-serif" font-size="15.9375" lengthAdjust="spacing" textLength="284.8517" x="2539.375" y="764.3065">get_session(session_id, db_path=None)</text><ellipse cx="2523.4375" cy="780.4879" fill="#84BE84" rx="5.3125" ry="5.3125" style="stroke:#038048;stroke-width:1.7708333333333333;"/><text fill="#000000" font-family="sans-serif" font-size="15.9375" lengthAdjust="spacing" textLength="339.7847" x="2539.375" y="784.3529">get_session_details(session_id, db_path=None)</text><ellipse cx="2523.4375" cy="800.5343" fill="#84BE84" rx="5.3125" ry="5.3125" style="stroke:#038048;stroke-width:1.7708333333333333;"/><text fill="#000000" font-family="sans-serif" font-size="15.9375" lengthAdjust="spacing" textLength="247.646" x="2539.375" y="804.3993">get_latest_session(db_path=None)</text><ellipse cx="2523.4375" cy="820.5806" fill="#84BE84" rx="5.3125" ry="5.3125" style="stroke:#038048;stroke-width:1.7708333333333333;"/><text fill="#000000" font-family="sans-serif" font-size="15.9375" lengthAdjust="spacing" textLength="406.2195" x="2539.375" y="824.4457">get_all_sessions(user_id=None, limit=50, db_path=None)</text></g><!--link API to Engine--><g id="link_API_Engine"><path codeLine="108" d="M1962.0125,289.2302 C1720.4531,302.2281 1227.7187,345.8083 839.375,490.9635 C741.8375,527.425 646.0884,574.4536 565.905,617.0068 " fill="none" id="API-to-Engine" style="stroke:#64748B;stroke-width:2.4791666666666665;"/><polygon fill="#64748B" points="556.5198,621.9875,573.9182,620.7732,564.3408,617.8369,567.2772,608.2596,556.5198,621.9875" style="stroke:#64748B;stroke-width:2.4791666666666665;"/><text fill="#000000" font-family="sans-serif" font-size="23.0208" lengthAdjust="spacing" textLength="404.3596" x="973.9583" y="470.5903">invokes validation &amp; window processing</text></g><!--link Engine to InfEngine--><g id="link_Engine_InfEngine"><path codeLine="109" d="M579.2042,774.4385 C656.2177,809.1115 751.3115,848.8313 839.375,877.0052 C1068.7333,950.3708 1330.7516,1003.4008 1507.5516,1034.9393 " fill="none" id="Engine-to-InfEngine" style="stroke:#64748B;stroke-width:2.4791666666666665;"/><polygon fill="#64748B" points="1518.0115,1036.8052,1503.5656,1027.0331,1509.2949,1035.2503,1501.0777,1040.9796,1518.0115,1036.8052" style="stroke:#64748B;stroke-width:2.4791666666666665;"/><text fill="#000000" font-family="sans-serif" font-size="23.0208" lengthAdjust="spacing" textLength="500.3209" x="981.0417" y="916.8403">sliding-window inference (3.0s window, 1.0s hop)</text></g><!--reverse link InfEngine to HubertModel--><g id="link_InfEngine_HubertModel"><path codeLine="110" d="M1703.5417,1183.8552 C1703.5417,1227.9844 1703.5417,1258.85 1703.5417,1299.9333 " fill="none" id="InfEngine-backto-HubertModel" style="stroke:#64748B;stroke-width:2.4791666666666665;"/><polygon fill="#64748B" points="1703.5417,1162.6052,1696.4583,1173.2302,1703.5417,1183.8552,1710.625,1173.2302,1703.5417,1162.6052" style="stroke:#64748B;stroke-width:2.4791666666666665;"/><text fill="#000000" font-family="sans-serif" font-size="23.0208" lengthAdjust="spacing" textLength="271.3041" x="1705.3125" y="1240.9028">PyTorch backbone &amp; head</text></g><!--link API to Aggregator--><g id="link_API_Aggregator"><path codeLine="111" d="M1961.8177,298.8281 C1829.0938,317.4927 1632.2833,358.2219 1482.1875,444.9219 C1395.7,494.8771 1325.7331,575.1485 1281.7988,632.736 " fill="none" id="API-to-Aggregator" style="stroke:#64748B;stroke-width:2.4791666666666665;"/><polygon fill="#64748B" points="1275.3542,641.1833,1290.6526,632.8087,1280.7247,634.1439,1279.3895,624.2159,1275.3542,641.1833" style="stroke:#64748B;stroke-width:2.4791666666666665;"/><text fill="#000000" font-family="sans-serif" font-size="23.0208" lengthAdjust="spacing" textLength="360.8471" x="1483.9583" y="470.5903">clusters detected disfluent windows</text></g><!--link API to Summary--><g id="link_API_Summary"><path codeLine="112" d="M1961.6052,350.0229 C1924.4531,374.2656 1889.1958,405.6448 1868.2292,444.9219 C1830.4927,515.5781 1889.1493,584.8128 1949.0389,634.5378 " fill="none" id="API-to-Summary" style="stroke:#64748B;stroke-width:2.4791666666666665;"/><polygon fill="#64748B" points="1957.2135,641.325,1949.4764,625.6944,1950.4014,635.669,1940.4268,636.5939,1957.2135,641.325" style="stroke:#64748B;stroke-width:2.4791666666666665;"/><text fill="#000000" font-family="sans-serif" font-size="23.0208" lengthAdjust="spacing" textLength="399.1777" x="1870" y="470.5903">computes session-level fluency metrics</text></g><!--link API to DB--><g id="link_API_DB"><path codeLine="113" d="M2206.175,388.2906 C2242.9729,421.7948 2287.3323,455.6531 2333.9583,476.7969 C2374.5104,495.1781 2390.8729,476.9031 2433.125,490.9635 C2487.224,508.9729 2533.2487,529.6681 2584.3195,556.7795 " fill="none" id="API-to-DB" style="stroke:#64748B;stroke-width:2.4791666666666665;"/><polygon fill="#64748B" points="2593.7042,561.7615,2582.9485,548.0322,2585.8836,557.6099,2576.306,560.545,2593.7042,561.7615" style="stroke:#64748B;stroke-width:2.4791666666666665;"/><text fill="#000000" font-family="sans-serif" font-size="23.0208" lengthAdjust="spacing" textLength="377.4607" x="2335.7292" y="470.5903">persists session metadata &amp; analysis</text></g><!--link UI to DB--><g id="link_UI_DB"><path codeLine="115" d="M2612.351,348.5708 C2654.851,373.4687 2698.1125,405.574 2728.8542,444.9219 C2755.0802,478.4792 2769.7469,510.6644 2781.6469,551.004 " fill="none" id="UI-to-DB" style="stroke:#64748B;stroke-width:2.4791666666666665;"/><polygon fill="#64748B" points="2784.6531,561.1948,2786.9376,543.9044,2782.1479,552.7024,2773.3499,547.9127,2784.6531,561.1948" style="stroke:#64748B;stroke-width:2.4791666666666665;"/><text fill="#000000" font-family="sans-serif" font-size="23.0208" lengthAdjust="spacing" textLength="406.8775" x="2750.1042" y="470.5903">queries session results, history &amp; trends</text></g><!--link UI to InfEngine--><g id="link_UI_InfEngine"><path codeLine="116" d="M2614.8302,296.3313 C2800.626,315.5271 3103.2969,359.2844 3171.5625,444.9219 C3210.6625,493.974 3613.1198,377.8958 3141.4583,877.0052 C3056.6531,966.751 2268.4309,1029.9948 1899.4069,1055.0166 " fill="none" id="UI-to-InfEngine" style="stroke:#64748B;stroke-width:2.4791666666666665;"/><polygon fill="#64748B" points="1888.8062,1055.7354,1905.1864,1061.7243,1897.6401,1055.1364,1904.228,1047.5901,1888.8062,1055.7354" style="stroke:#64748B;stroke-width:2.4791666666666665;"/><text fill="#000000" font-family="sans-serif" font-size="23.0208" lengthAdjust="spacing" textLength="390.2863" x="3369.8958" y="707.882">inspects model metadata &amp; thresholds</text></g><!--SRC=[hLTjR-8u4FxEhx1QQO_UyRejxIu294gINQGkHS3UwQIJ8fCCODN4MTkXnvxslz_OII1GUgrkcm-8s3EFPnu_dd4qqnn8Hx7lq7xVw7NclT_5tnuNZwHA1fmgHTwHlWnMJ4EW4mbagcMI_dCONKgwxjJdlKxT0FJ-YbAWvllUG1XRiT2FjEXK8Lz4c71G5KAZa7nERjt9hEeGDrgo23AOKaazi2Yc24xcD7XOIf54uK1m8Scvzy7hUuE2XLhHK3ooQ4aMb2iep8Gn8ysRHX4ki2dzKoBut3w1jayw9sG8CXk_lBngjbg5yTcA1GyH85Apbevx8jAPTSDhthplxqQdc15fDknxNsl9vec6tSH7E_u5z4g4HuDzASLZXdbzTNFruRRqevYAdIz6SbMSZJ4vkeHdKqrPV9BguDPfkStNfbeWPfzgS_-kjwYjkU2XYVmNqls_3_hsnqDKudZYJjtHh3yRte_8NVzFT_9JiAMSfRCKVXXfa0iQ0BcZMv1dvDprl6lFGnPjKgbwpXJImKJa8w4Qr1cXoeRNwGIOj1ISW-proBbpw_OzDzi1y_n6nlVJ6QdJcDKtpNe6KrUQIlsIKOU5lJfDGYPUPQcqY5y76L6-_Gu5sq_kQTCNJ3X5Bj8qVXom5LArcWigGv_6iINhg-4gbg0WqbIZisLhu0tScm9RTZDeeDa6wqSC4Ao8nnE8WYrnSiYTSHah3D0rPvfyIRXcrR7PrduSSnRO9Iwoo7vQYEF9_S2TJeUZJqOm8y-TkAE1IzpHf-78VICrJbDEoLYAmFp5sePLU9XLIPIbr_8kdvKbP5R8TEg0RAzjrJKykuxxyKYL6yfPYDldOqdskQ2XdqDPmPNjhnzJlVA5zETRRSgtekkOWo_HhzkyRZGQ5mN4E0ryXuFb6MkqAkVlBCJwRr0HHrP8c4YxIMWVL4WQVtSa8ZY5QGuPYnAHxE2p09L8P80TPh-8nQYG1UCGqJLqSufgZtHpTcAXG-5cZN0OBK2YxC3TyufZ6RNdWwlRbkSK-AmI91iuQMDtcuFKLeztT0xSzbEsO20BnY5i61QSDj42ssmjVItCwnKUb1NMK8Ks8Glq0ILWHZ9wovWLB8HS7spEnLEt9MZVnkYpQ27A1nQ753oVWQKXcxRfdY9YPUVtJ1Z3mdImGqEJANp3mwqPvOL8CHkyFuHbx6g9zb6dYRqvQ6qiSOlNL3sOy6SGAI5F900RjFJfSYbXIP7Xj5ZlNWzEXkCurqSd8tU4Z6BVuXtgEDDsXQmP2ZY9Oo7p7L7T9Ww3N8A_fB5HTnUxw2cjvO0gMQ-ftDemf-d_bs8CA0yIKttz8v23A0-Fs2xcD9zAAba_FIIPxi_Uh6Gw_LcVZDt9T3YTsMBvbftRePgICKZ5b3QdTD-w1vxZjOvg99OvEgSgFSNExI6tnnseYXR-k3_xZ0eRO_KhaCuYflrmNWxdjYu-ALOAZ-9kFoG4U9SgrsgrPqri6yOKJYihtwLiOt4tNx7i3ihaV0BiEGnJ7OuXh89UjlT3q9HnzMg_zDAmM-w_J2ddkPqg9mhalhvpjcQwssgSMkiDv3jnx-o5S_fvE9vY8xPozkxk__Wv1PihOxNQotjq6pMr4G-WydPiBW3lictBcn_U14gPlN7Tjw4sKUY4qzNCWULTYvGlQmsLuLJm5eylAn5VbFRElrQh1wKSrRwTcMvalxxco2K6iW8Qxc8kLD0s7gq4ZvvKsChCHoA4s4tKmbpLTAwwdMDUqz1Bh6DpVSxRTPMZC3bPP5UyDU2dKh1tnBFQ9d5wp7S-neeQUMDy-GagbRuMFB2dIBPVX60lnMQ6wbyXZi10tX6yE4QXohsAbB98nPYGoXfwOR5zKoxz2m00]--></g></svg>